<svg xmlns="http://www.w3.org/2000/svg" version="1.1" xmlns:xlink="http://www.w3.org/1999/xlink" xmlns:svgjs="http://svgjs.com/svgjs" width="1440" height="560" preserveAspectRatio="none" viewBox="0 0 1440 560"><g mask="url(&quot;#SvgjsMask1001&quot;)" fill="none"><path d="M1560 560L0 560 L0 424.21Q26.82 379.03, 72 405.86Q113.95 327.81, 192 369.76Q264.42 322.18, 312 394.6Q340.88 351.48, 384 380.35Q412.98 337.33, 456 366.3Q504.13 342.43, 528 390.56Q572.98 363.54, 600 408.52Q621.93 358.44, 672 380.37Q721.28 309.65, 792 358.94Q875.2 322.14, 912 405.35Q942.66 364.01, 984 394.67Q1009.28 347.95, 1056 373.22Q1111.83 357.05, 1128 412.88Q1157.58 370.45, 1200 400.03Q1252.14 332.17, 1320 384.32Q1369.12 313.44, 1440 362.56Q1522.8 325.36, 1560 408.15z" fill="#182f5d"></path><path d="M1464 560L0 560 L0 464.25Q35.07 379.32, 120 414.39Q163.42 385.81, 192 429.23Q240.13 405.36, 264 453.48Q317.63 387.11, 384 440.73Q432.23 416.96, 456 465.18Q510.09 399.27, 576 453.36Q647.6 404.96, 696 476.56Q726.52 387.08, 816 417.6Q861.4 391, 888 436.4Q934.17 410.57, 960 456.74Q972.32 397.06, 1032 409.37Q1076.93 382.3, 1104 427.23Q1176.44 379.68, 1224 452.12Q1295.22 403.34, 1344 474.56Q1375.56 386.12, 1464 417.67z" fill="#25467d"></path><path d="M1464 560L0 560 L0 489.28Q52.23 421.51, 120 473.74Q173.26 455, 192 508.27Q241.45 437.72, 312 487.16Q364.63 419.79, 432 472.42Q492.71 461.13, 504 521.85Q557.04 454.89, 624 507.93Q669.72 433.65, 744 479.37Q825.52 440.89, 864 522.42Q912.57 450.99, 984 499.56Q1038.9 434.46, 1104 489.36Q1182.7 448.06, 1224 526.76Q1255.31 438.07, 1344 469.38Q1427.56 432.94, 1464 516.49z" fill="#356cb1"></path><path d="M1488 560L0 560 L0 514.32Q84.86 479.18, 120 564.05Q174.21 498.25, 240 552.46Q259.5 499.96, 312 519.45Q380.59 468.04, 432 536.62Q501.12 485.74, 552 554.86Q618.38 501.24, 672 567.61Q693.54 517.15, 744 538.7Q789.57 464.27, 864 509.84Q925.38 499.22, 936 560.59Q1004.85 509.44, 1056 578.29Q1082.19 484.49, 1176 510.68Q1246.31 460.99, 1296 531.3Q1339.6 502.89, 1368 546.49Q1413.51 472, 1488 517.51z" fill="white"></path></g><defs><mask id="SvgjsMask1001"><rect width="1440" height="560" fill="#ffffff"></rect></mask></defs></svg>