<svg xmlns="http://www.w3.org/2000/svg" version="1.1" xmlns:xlink="http://www.w3.org/1999/xlink" xmlns:svgjs="http://svgjs.com/svgjs" width="1440" height="560" preserveAspectRatio="none" viewBox="0 0 1440 560"><g mask="url(&quot;#SvgjsMask1002&quot;)" fill="none"><path d="M26.36 -22.73L91.31 14.77L91.31 89.77L26.36 127.27L-38.59 89.77L-38.59 14.77zM91.31 89.77L156.27 127.27L156.27 202.27L91.31 239.77L26.36 202.27L26.36 127.27zM156.27 -22.73L221.22 14.77L221.22 89.77L156.27 127.27L91.31 89.77L91.31 14.77zM156.27 202.27L221.22 239.77L221.22 314.77L156.27 352.27L91.31 314.77L91.31 239.77zM221.22 539.77L286.18 577.27L286.18 652.27L221.22 689.77L156.27 652.27L156.27 577.27zM286.18 -22.73L351.13 14.77L351.13 89.77L286.18 127.27L221.22 89.77L221.22 14.77zM286.18 427.27L351.13 464.77L351.13 539.77L286.18 577.27L221.22 539.77L221.22 464.77zM481.04 89.77L545.99 127.27L545.99 202.27L481.04 239.77L416.08 202.27L416.08 127.27zM416.08 202.27L481.04 239.77L481.04 314.77L416.08 352.27L351.13 314.77L351.13 239.77zM481.04 314.77L545.99 352.27L545.99 427.27L481.04 464.77L416.08 427.27L416.08 352.27zM610.94 314.77L675.9 352.27L675.9 427.27L610.94 464.77L545.99 427.27L545.99 352.27zM545.99 427.27L610.94 464.77L610.94 539.77L545.99 577.27L481.04 539.77L481.04 464.77zM610.94 539.77L675.9 577.27L675.9 652.27L610.94 689.77L545.99 652.27L545.99 577.27zM805.8 202.27L870.76 239.77L870.76 314.77L805.8 352.27L740.85 314.77L740.85 239.77zM805.8 427.27L870.76 464.77L870.76 539.77L805.8 577.27L740.85 539.77L740.85 464.77zM1000.67 539.77L1065.62 577.27L1065.62 652.27L1000.67 689.77L935.71 652.27L935.71 577.27zM1130.57 539.77L1195.53 577.27L1195.53 652.27L1130.57 689.77L1065.62 652.27L1065.62 577.27zM1260.48 539.77L1325.43 577.27L1325.43 652.27L1260.48 689.77L1195.53 652.27L1195.53 577.27zM1455.34 202.27L1520.3 239.77L1520.3 314.77L1455.34 352.27L1390.39 314.77L1390.39 239.77zM1520.3 539.77L1585.25 577.27L1585.25 652.27L1520.3 689.77L1455.34 652.27L1455.34 577.27z" stroke="#03305d" stroke-width="2"></path><path d="M18.86 -22.73 a7.5 7.5 0 1 0 15 0 a7.5 7.5 0 1 0 -15 0zM83.81 14.77 a7.5 7.5 0 1 0 15 0 a7.5 7.5 0 1 0 -15 0zM83.81 89.77 a7.5 7.5 0 1 0 15 0 a7.5 7.5 0 1 0 -15 0zM18.86 127.27 a7.5 7.5 0 1 0 15 0 a7.5 7.5 0 1 0 -15 0zM-46.09 89.77 a7.5 7.5 0 1 0 15 0 a7.5 7.5 0 1 0 -15 0zM-46.09 14.77 a7.5 7.5 0 1 0 15 0 a7.5 7.5 0 1 0 -15 0zM148.77 127.27 a7.5 7.5 0 1 0 15 0 a7.5 7.5 0 1 0 -15 0zM148.77 202.27 a7.5 7.5 0 1 0 15 0 a7.5 7.5 0 1 0 -15 0zM83.81 239.77 a7.5 7.5 0 1 0 15 0 a7.5 7.5 0 1 0 -15 0zM18.86 202.27 a7.5 7.5 0 1 0 15 0 a7.5 7.5 0 1 0 -15 0zM148.77 -22.73 a7.5 7.5 0 1 0 15 0 a7.5 7.5 0 1 0 -15 0zM213.72 14.77 a7.5 7.5 0 1 0 15 0 a7.5 7.5 0 1 0 -15 0zM213.72 89.77 a7.5 7.5 0 1 0 15 0 a7.5 7.5 0 1 0 -15 0zM213.72 239.77 a7.5 7.5 0 1 0 15 0 a7.5 7.5 0 1 0 -15 0zM213.72 314.77 a7.5 7.5 0 1 0 15 0 a7.5 7.5 0 1 0 -15 0zM148.77 352.27 a7.5 7.5 0 1 0 15 0 a7.5 7.5 0 1 0 -15 0zM83.81 314.77 a7.5 7.5 0 1 0 15 0 a7.5 7.5 0 1 0 -15 0zM213.72 539.77 a7.5 7.5 0 1 0 15 0 a7.5 7.5 0 1 0 -15 0zM278.68 577.27 a7.5 7.5 0 1 0 15 0 a7.5 7.5 0 1 0 -15 0zM278.68 652.27 a7.5 7.5 0 1 0 15 0 a7.5 7.5 0 1 0 -15 0zM213.72 689.77 a7.5 7.5 0 1 0 15 0 a7.5 7.5 0 1 0 -15 0zM148.77 652.27 a7.5 7.5 0 1 0 15 0 a7.5 7.5 0 1 0 -15 0zM148.77 577.27 a7.5 7.5 0 1 0 15 0 a7.5 7.5 0 1 0 -15 0zM278.68 -22.73 a7.5 7.5 0 1 0 15 0 a7.5 7.5 0 1 0 -15 0zM343.63 14.77 a7.5 7.5 0 1 0 15 0 a7.5 7.5 0 1 0 -15 0zM343.63 89.77 a7.5 7.5 0 1 0 15 0 a7.5 7.5 0 1 0 -15 0zM278.68 127.27 a7.5 7.5 0 1 0 15 0 a7.5 7.5 0 1 0 -15 0zM278.68 427.27 a7.5 7.5 0 1 0 15 0 a7.5 7.5 0 1 0 -15 0zM343.63 464.77 a7.5 7.5 0 1 0 15 0 a7.5 7.5 0 1 0 -15 0zM343.63 539.77 a7.5 7.5 0 1 0 15 0 a7.5 7.5 0 1 0 -15 0zM213.72 464.77 a7.5 7.5 0 1 0 15 0 a7.5 7.5 0 1 0 -15 0zM473.54 89.77 a7.5 7.5 0 1 0 15 0 a7.5 7.5 0 1 0 -15 0zM538.49 127.27 a7.5 7.5 0 1 0 15 0 a7.5 7.5 0 1 0 -15 0zM538.49 202.27 a7.5 7.5 0 1 0 15 0 a7.5 7.5 0 1 0 -15 0zM473.54 239.77 a7.5 7.5 0 1 0 15 0 a7.5 7.5 0 1 0 -15 0zM408.58 202.27 a7.5 7.5 0 1 0 15 0 a7.5 7.5 0 1 0 -15 0zM408.58 127.27 a7.5 7.5 0 1 0 15 0 a7.5 7.5 0 1 0 -15 0zM473.54 314.77 a7.5 7.5 0 1 0 15 0 a7.5 7.5 0 1 0 -15 0zM408.58 352.27 a7.5 7.5 0 1 0 15 0 a7.5 7.5 0 1 0 -15 0zM343.63 314.77 a7.5 7.5 0 1 0 15 0 a7.5 7.5 0 1 0 -15 0zM343.63 239.77 a7.5 7.5 0 1 0 15 0 a7.5 7.5 0 1 0 -15 0zM538.49 352.27 a7.5 7.5 0 1 0 15 0 a7.5 7.5 0 1 0 -15 0zM538.49 427.27 a7.5 7.5 0 1 0 15 0 a7.5 7.5 0 1 0 -15 0zM473.54 464.77 a7.5 7.5 0 1 0 15 0 a7.5 7.5 0 1 0 -15 0zM408.58 427.27 a7.5 7.5 0 1 0 15 0 a7.5 7.5 0 1 0 -15 0zM603.44 314.77 a7.5 7.5 0 1 0 15 0 a7.5 7.5 0 1 0 -15 0zM668.4 352.27 a7.5 7.5 0 1 0 15 0 a7.5 7.5 0 1 0 -15 0zM668.4 427.27 a7.5 7.5 0 1 0 15 0 a7.5 7.5 0 1 0 -15 0zM603.44 464.77 a7.5 7.5 0 1 0 15 0 a7.5 7.5 0 1 0 -15 0zM603.44 539.77 a7.5 7.5 0 1 0 15 0 a7.5 7.5 0 1 0 -15 0zM538.49 577.27 a7.5 7.5 0 1 0 15 0 a7.5 7.5 0 1 0 -15 0zM473.54 539.77 a7.5 7.5 0 1 0 15 0 a7.5 7.5 0 1 0 -15 0zM668.4 577.27 a7.5 7.5 0 1 0 15 0 a7.5 7.5 0 1 0 -15 0zM668.4 652.27 a7.5 7.5 0 1 0 15 0 a7.5 7.5 0 1 0 -15 0zM603.44 689.77 a7.5 7.5 0 1 0 15 0 a7.5 7.5 0 1 0 -15 0zM538.49 652.27 a7.5 7.5 0 1 0 15 0 a7.5 7.5 0 1 0 -15 0zM798.3 202.27 a7.5 7.5 0 1 0 15 0 a7.5 7.5 0 1 0 -15 0zM863.26 239.77 a7.5 7.5 0 1 0 15 0 a7.5 7.5 0 1 0 -15 0zM863.26 314.77 a7.5 7.5 0 1 0 15 0 a7.5 7.5 0 1 0 -15 0zM798.3 352.27 a7.5 7.5 0 1 0 15 0 a7.5 7.5 0 1 0 -15 0zM733.35 314.77 a7.5 7.5 0 1 0 15 0 a7.5 7.5 0 1 0 -15 0zM733.35 239.77 a7.5 7.5 0 1 0 15 0 a7.5 7.5 0 1 0 -15 0zM798.3 427.27 a7.5 7.5 0 1 0 15 0 a7.5 7.5 0 1 0 -15 0zM863.26 464.77 a7.5 7.5 0 1 0 15 0 a7.5 7.5 0 1 0 -15 0zM863.26 539.77 a7.5 7.5 0 1 0 15 0 a7.5 7.5 0 1 0 -15 0zM798.3 577.27 a7.5 7.5 0 1 0 15 0 a7.5 7.5 0 1 0 -15 0zM733.35 539.77 a7.5 7.5 0 1 0 15 0 a7.5 7.5 0 1 0 -15 0zM733.35 464.77 a7.5 7.5 0 1 0 15 0 a7.5 7.5 0 1 0 -15 0zM993.17 539.77 a7.5 7.5 0 1 0 15 0 a7.5 7.5 0 1 0 -15 0zM1058.12 577.27 a7.5 7.5 0 1 0 15 0 a7.5 7.5 0 1 0 -15 0zM1058.12 652.27 a7.5 7.5 0 1 0 15 0 a7.5 7.5 0 1 0 -15 0zM993.17 689.77 a7.5 7.5 0 1 0 15 0 a7.5 7.5 0 1 0 -15 0zM928.21 652.27 a7.5 7.5 0 1 0 15 0 a7.5 7.5 0 1 0 -15 0zM928.21 577.27 a7.5 7.5 0 1 0 15 0 a7.5 7.5 0 1 0 -15 0zM1123.07 539.77 a7.5 7.5 0 1 0 15 0 a7.5 7.5 0 1 0 -15 0zM1188.03 577.27 a7.5 7.5 0 1 0 15 0 a7.5 7.5 0 1 0 -15 0zM1188.03 652.27 a7.5 7.5 0 1 0 15 0 a7.5 7.5 0 1 0 -15 0zM1123.07 689.77 a7.5 7.5 0 1 0 15 0 a7.5 7.5 0 1 0 -15 0zM1252.98 539.77 a7.5 7.5 0 1 0 15 0 a7.5 7.5 0 1 0 -15 0zM1317.93 577.27 a7.5 7.5 0 1 0 15 0 a7.5 7.5 0 1 0 -15 0zM1317.93 652.27 a7.5 7.5 0 1 0 15 0 a7.5 7.5 0 1 0 -15 0zM1252.98 689.77 a7.5 7.5 0 1 0 15 0 a7.5 7.5 0 1 0 -15 0zM1447.84 202.27 a7.5 7.5 0 1 0 15 0 a7.5 7.5 0 1 0 -15 0zM1512.8 239.77 a7.5 7.5 0 1 0 15 0 a7.5 7.5 0 1 0 -15 0zM1512.8 314.77 a7.5 7.5 0 1 0 15 0 a7.5 7.5 0 1 0 -15 0zM1447.84 352.27 a7.5 7.5 0 1 0 15 0 a7.5 7.5 0 1 0 -15 0zM1382.89 314.77 a7.5 7.5 0 1 0 15 0 a7.5 7.5 0 1 0 -15 0zM1382.89 239.77 a7.5 7.5 0 1 0 15 0 a7.5 7.5 0 1 0 -15 0zM1512.8 539.77 a7.5 7.5 0 1 0 15 0 a7.5 7.5 0 1 0 -15 0zM1577.75 577.27 a7.5 7.5 0 1 0 15 0 a7.5 7.5 0 1 0 -15 0zM1577.75 652.27 a7.5 7.5 0 1 0 15 0 a7.5 7.5 0 1 0 -15 0zM1512.8 689.77 a7.5 7.5 0 1 0 15 0 a7.5 7.5 0 1 0 -15 0zM1447.84 652.27 a7.5 7.5 0 1 0 15 0 a7.5 7.5 0 1 0 -15 0zM1447.84 577.27 a7.5 7.5 0 1 0 15 0 a7.5 7.5 0 1 0 -15 0z" fill="#03305d"></path><path d="M19.7 362.34L75.13 394.34L75.13 458.34L19.7 490.34L-35.73 458.34L-35.73 394.34zM75.13 458.34L130.55 490.34L130.55 554.34L75.13 586.34L19.7 554.34L19.7 490.34zM241.41 170.34L296.84 202.34L296.84 266.34L241.41 298.34L185.98 266.34L185.98 202.34zM352.26 170.34L407.69 202.34L407.69 266.34L352.26 298.34L296.84 266.34L296.84 202.34zM740.25 458.34L795.68 490.34L795.68 554.34L740.25 586.34L684.83 554.34L684.83 490.34zM961.96 74.34L1017.39 106.34L1017.39 170.34L961.96 202.34L906.54 170.34L906.54 106.34zM1128.24 -21.66L1183.67 10.34L1183.67 74.34L1128.24 106.34L1072.82 74.34L1072.82 10.34zM1183.67 266.34L1239.1 298.34L1239.1 362.34L1183.67 394.34L1128.24 362.34L1128.24 298.34z" stroke="rgba(6, 80, 156, 0.93)" stroke-width="2"></path></g><defs><mask id="SvgjsMask1002"><rect width="1440" height="560" fill="#ffffff"></rect></mask></defs></svg>